<svg version="1.1" width="407.7" height="494.8" viewBox="0 0 407.7 494.8" xmlns="http://www.w3.org/2000/svg" xmlns:xlink="http://www.w3.org/1999/xlink" overflow="hidden"><defs></defs><path d=" M 105.8 347.8 L 93.8 479.8 L 79.7 494.8 L 108.8 491 L 147.2 385.4 L 155.1 384.7 L 190.2 491 L 225.3 491.3 L 200.6 477.8 L 191.5 325.3 Z" fill="#1D1D1B"/><g><path d=" M 172.1 205.5 C 183.9 201.6 195.1 195.3 203.4 186.1 C 211.7 176.9 216.8 164.4 215.8 152.1 C 215.7 150.7 215.6 149.8 215.4 148.4 C 214.4 141.4 211.2 120.5 194.7 105.1 C 185.5 96.6 175.3 92.5 167.7 90.6 C 168.9 83.4 170 76.3 171.2 69.1 C 165.5 73.4 159.9 77.8 154.2 82.1 C 153.4 78.8 152.5 75.4 151.7 72.1 C 147.1 75.5 140 80.6 131.2 86.6 C 104.3 105.1 100.8 105.3 94.7 112.6 C 81.1 129 80.8 149.6 80.7 157.1 C 80.5 168.5 80.4 182.7 90.6 195.3 C 102.2 209.6 124.3 211.9 128.9 212.3 L 125.8 227.2 L 154.3 236.4 L 168.5 225.9 L 172.1 205.5 Z" fill="#FFFFFF"/></g><path d=" M 208.9 244.3 C 192.9 237.1 183.3 223.6 182.8 222.8 C 179.3 217.8 172.5 216.6 167.5 220.1 C 162.5 223.6 161.3 230.4 164.8 235.4 C 166.9 238.5 183.1 260.5 210.2 268.1 C 209.9 267.7 209.6 267.2 209.4 266.8 C 205.1 259.3 208.7 251.8 208.9 244.3 Z" fill="#1D1D1B"/><g><g><path d=" M 123.9 209.8 C 112.4 208.6 101 203.5 93.4 194.7 C 83.4 183.2 82.8 168.2 83.3 153.8 C 83.8 139.7 87.4 125.2 96.7 114.1 C 100.7 109.4 105.9 106.2 111 102.9 C 125.3 93.7 139.3 84.2 153 74.2 C 151.8 73.7 150.6 73.2 149.3 72.7 C 150.1 76 151 79.4 151.8 82.7 C 152.2 84.1 154.2 85.2 155.5 84.2 C 161.2 79.9 166.8 75.5 172.5 71.2 C 171.3 70.3 170.1 69.3 168.8 68.4 C 167.6 75.6 166.5 82.7 165.3 89.9 C 165.1 91.2 165.6 92.6 167 93 C 191.8 99.6 207.5 119.5 212.1 144.2 C 214.4 156.4 212.9 167.8 206.1 178.4 C 198.1 190.7 185 198.5 171.4 203.1 C 168.4 204.1 169.7 209 172.7 207.9 C 187.1 203 200.7 195 209.5 182.2 C 217.4 170.8 219.5 157.9 217.2 144.4 C 212.6 117.4 195.3 95.3 168.3 88.1 C 168.9 89.1 169.5 90.2 170 91.2 C 171.2 84 172.3 76.9 173.5 69.7 C 173.8 67.9 171.8 65.4 169.8 66.9 C 164.1 71.2 158.5 75.6 152.8 79.9 C 154 80.4 155.2 80.9 156.5 81.4 C 155.7 78.1 154.8 74.7 154 71.4 C 153.6 70 151.6 69 150.3 69.9 C 136.6 79.9 122.6 89.5 108.3 98.6 C 102 102.6 96.1 106.4 91.5 112.4 C 82.4 124.1 78.7 138.8 78.1 153.4 C 77.6 168.2 78.2 183.4 87.5 195.7 C 96.2 207.1 109.7 213.4 123.7 214.9 C 127.1 215.1 127.1 210.1 123.9 209.8 L 123.9 209.8 Z" fill="#1D1D1B"/></g></g><circle cx="123.5" cy="140" r="12.8" fill="#1D1D1B"/><circle cx="175" cy="124" r="12.8" fill="#1D1D1B"/><g><g><path d=" M 125.7 136.5 C 128.9 136.5 128.9 131.5 125.7 131.5 C 122.5 131.5 122.5 136.5 125.7 136.5 L 125.7 136.5 Z" fill="#FFFFFF"/></g></g><g><g><path d=" M 180.5 123.8 C 183.7 123.8 183.7 118.8 180.5 118.8 C 177.3 118.8 177.3 123.8 180.5 123.8 L 180.5 123.8 Z" fill="#FFFFFF"/></g></g><path d=" M 121.9 149 C 118.3 148 116.1 143.5 117.1 142 C 117.8 141 120.2 141.5 123.9 142.3 C 127.5 143.1 130 143.6 130.2 144.8 C 130.4 146.6 125.9 150.2 121.9 149 Z" fill="#FFFFFF"/><path d=" M 169.5 123.3 C 168.3 124 169.3 131.7 174 133 C 178.2 134.2 183 129.5 182.5 128.2 C 182.2 127.4 179.9 128.4 176.2 127.2 C 171.8 125.9 170.3 122.8 169.5 123.3 Z" fill="#FFFFFF"/><circle cx="173.1" cy="117.9" r="1.1" fill="#FFFFFF"/><circle cx="118" cy="136.8" r="1.1" fill="#FFFFFF"/><path d=" M 135.5 170.5 C 140.5 171.2 151.2 172.1 163.5 167.5 C 176.5 162.6 184.3 154.2 187.5 150.2 C 191.7 155.1 195.8 160 200 165 C 197.1 169.3 187.8 181.7 170.2 187.7 C 149.5 194.7 131.9 187.6 127.7 185.8 C 130.3 180.7 132.9 175.6 135.5 170.5 Z" stroke="#1D1D1B" stroke-miterlimit="10" fill="#1D1D1B"/><circle cx="127" cy="175.1" r="14.4" stroke="#FFFFFF" stroke-miterlimit="10" fill="#FFFFFF"/><ellipse cx="198.3" cy="154.2" rx="12.9" ry="14.4" stroke="#FFFFFF" stroke-miterlimit="10" fill="#FFFFFF" transform="matrix(0.8952,-0.4456,0.4456,0.8952,-47.9195,104.535)"/><circle cx="123.5" cy="172.3" r="6.9" fill="#F9B2DD"/><circle cx="198.3" cy="150.3" r="6.9" fill="#F9B2DD"/><path d=" M 143.6 179 C 149.7 179 160.3 178.2 171.6 172.5 C 177.7 169.4 182.3 165.8 185.7 162.7 C 184.8 160.8 184 158.9 183.1 157 C 179.6 160.3 173.2 165.5 163.8 168.8 C 156 171.6 149.1 172 144.6 172 C 144.2 174.4 143.9 176.7 143.6 179 Z" fill="#FFFFFF"/><path d=" M 154.2 179.9 L 157.2 175.1 L 163.2 179 Z" stroke="#1D1D1B" stroke-miterlimit="10" fill="#1D1D1B"/><path d=" M 107.6 180.1 C 112.2 168.7 113.1 165.6 114.2 165.8 C 115 165.9 116 167.7 116.3 176 C 120.5 170.3 122.9 167.6 123.7 168.1 C 124.5 168.6 123.4 172.5 120.4 180 C 127.4 175.9 131.3 174.3 132.1 175.2 C 133.1 176.5 129 182 119.7 191.8 C 118 192.4 106.6 196.2 104 192.4 C 103.1 190.9 104 189.1 107.6 180.1 Z" stroke="#1D1D1B" stroke-width="2" stroke-miterlimit="10" fill="#FFFFFF"/><path d=" M 221.5 155.6 C 213.7 146.2 211.9 143.5 210.8 144 C 210.1 144.4 209.7 146.4 211.9 154.4 C 206.2 150.2 203 148.5 202.4 149.1 C 201.7 149.8 204 153.2 209.2 159.4 C 201.3 157.6 197.1 157.3 196.6 158.4 C 196 159.9 201.6 163.9 213.5 170.4 C 215.3 170.4 227.3 170.6 228.6 166.2 C 229.1 164.5 227.7 163 221.5 155.6 Z" stroke="#1D1D1B" stroke-width="2" stroke-miterlimit="10" fill="#FFFFFF"/><path d=" M 124.7 224.5 C 129.2 226.1 136.8 228 146.2 227.5 C 157.4 226.9 165.8 222.9 170.2 220.5 L 170.2 220.5 C 182 228.4 189.6 241.3 190.8 255.6 C 193.1 283.7 195.4 311.9 197.7 340 C 190.5 346 171.7 360.2 143.7 363 C 123.8 365 107.9 360.4 99.3 357.2 C 100.8 338.4 103.4 318 107.3 296.2 C 112.1 269.8 118.2 245.8 124.7 224.5 Z" stroke="#1D1D1B" stroke-width="2" stroke-miterlimit="10" fill="#36A9E1"/><path d=" M 407.7 82.9 C 407.7 107.9 370.9 128.1 333.2 128.1 C 295.5 128.1 271.2 108 271.2 82.9 C 271.2 49.6 308.8 37.6 346.5 37.6 C 384.2 37.6 407.7 57.8 407.7 82.9 Z" fill="#1D1D1B"/><path d=" M 302.7 112 C 299 116.7 293.9 121.9 287.2 126.5 C 264.8 141.9 240.1 140.1 231.2 139 C 243.1 141.1 263.9 143 287.7 135.5 C 298.8 132 307.8 127.3 314.6 122.9 C 310.7 119.3 306.7 115.7 302.7 112 Z" fill="#1D1D1B"/><path d=" M 263.2 250.5 C 267.3 252.4 271.9 253 276.5 253.1 C 279.4 250.1 281.9 246.5 283.6 242.4 C 288.6 230.6 286.9 215.8 279 201.3 C 274.2 207.2 268.1 211.9 261.1 214.8 C 264.6 222.3 265.3 229.2 263.3 233.8 C 261.7 237.5 258.3 240.3 254.2 242.5 C 256.7 245.8 259.6 248.8 263.2 250.5 Z" fill="#1D1D1B"/><path d=" M 273.4 192.4 C 269 186.4 263.7 180.8 257.6 175.6 C 255.8 179.5 253.8 183.2 251.2 186.4 C 248.9 189.2 246.3 191.1 243.4 192.4 C 248.6 196.8 252.8 201.5 256 206.1 C 263.1 203.4 269.2 198.8 273.4 192.4 Z" fill="#1D1D1B"/><path d=" M 245.1 177.7 C 246.8 175 248.1 172.2 249.4 169.2 C 243.8 165.2 237.7 161.7 231.2 158.6 C 225.7 156 219.2 158.3 216.5 163.8 C 213.9 169.3 216.2 175.8 221.7 178.5 C 225.8 180.5 229.6 182.6 233.1 184.9 C 237.9 184.2 242.1 182.6 245.1 177.7 Z" fill="#1D1D1B"/><path d=" M 244.7 246.2 C 239.4 247.7 234.3 248.4 231.6 248.6 C 226.9 248.9 222.5 248.4 218.4 247.5 C 218.4 247.8 218.3 248.2 218.3 248.5 C 217.7 252.1 216.5 256.1 217.3 259.8 C 218.4 264.6 224.2 267.9 229.2 270.6 C 230.4 270.6 231.6 270.6 232.9 270.5 C 235.5 270.3 251.3 269.1 265.1 261.6 C 262.7 261 260.4 260.2 258.2 259.1 C 252.6 256.3 248.2 251.5 244.7 246.2 Z" fill="#1D1D1B"/><path d=" M 251.2 186.3 C 253.8 183.1 255.8 179.4 257.6 175.5 C 255 173.3 252.3 171.2 249.4 169.2 C 248.2 172.2 246.8 175 245.1 177.7 C 242.1 182.6 237.9 184.2 233.1 184.8 C 236.9 187.2 240.3 189.8 243.4 192.4 C 246.3 191.1 249 189.1 251.2 186.3 Z" fill="#1D1D1B"/><path d=" M 279.1 201.3 C 278.4 200 277.6 198.6 276.8 197.3 C 275.8 195.6 274.6 194 273.5 192.4 C 269.3 198.8 263.2 203.5 256.1 206.1 C 258.2 209.1 259.9 212 261.2 214.9 C 268.1 211.9 274.3 207.2 279.1 201.3 Z" fill="#1D1D1B"/><path d=" M 276.5 253.1 C 271.9 253 267.3 252.4 263.2 250.5 C 259.6 248.8 256.7 245.9 254.2 242.5 C 251.2 244.1 247.9 245.3 244.6 246.2 C 248.1 251.5 252.5 256.3 258.1 259.1 C 260.3 260.2 262.7 261 265 261.6 C 269.2 259.4 273.2 256.6 276.5 253.1 Z" fill="#1D1D1B"/><path d=" M 217.2 259.8 C 216.4 256.1 217.7 252.1 218.2 248.5 C 218.3 248.2 218.3 247.8 218.3 247.5 C 214.9 246.7 211.7 245.6 208.8 244.3 C 208.6 251.8 205 259.4 209.2 266.8 C 209.5 267.3 209.7 267.7 210 268.1 C 215.7 269.7 221.9 270.7 228.6 270.7 C 228.8 270.7 229 270.7 229.1 270.7 C 224.1 267.9 218.3 264.6 217.2 259.8 Z" fill="#1D1D1B"/><path d=" M 85.2 261.8 C 82 262.8 79 263 76.4 262.4 C 71.7 261.2 67.1 257 65.8 252.5 C 65.3 250.9 65.2 249.2 65.4 247.3 C 63.3 247.2 61.2 246.9 59.2 246.4 C 53.9 245.1 49.4 242.1 44.4 239.9 C 42.9 246.4 42.9 252.7 44.7 258.8 C 48.2 270.7 58.8 280.8 71.1 283.9 C 73.9 284.6 76.8 284.9 79.7 284.9 C 85.3 284.9 91 283.6 96.5 281.2 C 91.1 275.8 87.1 269.1 85.2 261.8 Z" fill="#1D1D1B"/><path d=" M 90.8 214.5 C 96.4 210.5 102.8 206.7 110 203.3 C 115.5 200.7 117.8 194.1 115.2 188.6 C 112.6 183.1 106 180.8 100.5 183.4 C 91.7 187.6 83.6 192.4 76.6 197.5 C 77.2 201.1 78.2 204.5 80.1 207.5 C 82.6 211.3 86.6 213.2 90.8 214.5 Z" fill="#1D1D1B"/><path d=" M 128.9 250.5 C 131.9 245.6 134.5 240.2 136.8 234.4 C 139 228.7 136.3 222.4 130.6 220.1 C 124.9 217.9 118.6 220.6 116.3 226.3 C 114.3 231.4 111.9 236 109.4 240.1 C 114.4 245.8 121.2 249.5 128.9 250.5 Z" fill="#1D1D1B"/><path d=" M 68.9 237.2 C 71.7 232.2 76 226.9 81.9 221.6 C 78.2 219.8 75 217.4 72.5 213.9 C 70.5 211.1 69.1 207.9 68.1 204.5 C 58.8 212.7 51.9 221.5 47.8 230.5 C 54.9 233.5 61.2 237.2 68.9 237.2 Z" fill="#1D1D1B"/><path d=" M 103.3 248.5 C 100.4 251.9 97.4 254.7 94.4 256.9 C 95.8 264.5 99.8 271.2 105.7 275.9 C 111.8 271.7 117.5 266.2 122.6 259.5 C 115.4 257.6 108.7 253.8 103.3 248.5 Z" fill="#1D1D1B"/><path d=" M 109.4 240.2 C 107.5 243.3 105.5 246 103.4 248.5 C 108.7 253.8 115.5 257.7 122.8 259.5 C 125 256.7 127 253.7 128.9 250.5 C 121.2 249.5 114.4 245.8 109.4 240.2 Z" fill="#1D1D1B"/><path d=" M 94.4 256.9 C 91.3 259.2 88.1 260.8 85.2 261.8 C 87.1 269.1 91.1 275.8 96.5 281.1 C 99.6 279.7 102.7 278 105.8 275.9 C 99.9 271.1 95.9 264.4 94.4 256.9 Z" fill="#1D1D1B"/><path d=" M 65.4 247.2 C 65.7 244.2 66.9 240.8 68.9 237.2 C 61.2 237.3 54.9 233.5 47.7 230.4 C 46.2 233.5 45.1 236.7 44.4 239.8 C 49.3 242 53.8 245 59.2 246.3 C 61.3 246.8 63.3 247.1 65.4 247.2 Z" fill="#1D1D1B"/><path d=" M 81.9 221.6 C 84.6 219.2 87.5 216.8 90.8 214.5 C 86.6 213.2 82.6 211.3 80.2 207.5 C 78.3 204.6 77.3 201.1 76.7 197.5 C 73.6 199.7 70.8 202.1 68.1 204.4 C 69.1 207.8 70.5 211 72.5 213.8 C 74.9 217.4 78.2 219.8 81.9 221.6 Z" fill="#1D1D1B"/><text transform="matrix(1,0,0,1,322.692,72.6515)"><tspan fill="#F9B233" font-family="mvboli" font-size="24.9543" x="0" y="0">Hi!</tspan><tspan fill="#F9B233" font-family="mvboli" font-size="24.9543" x="-29" y="29.9">I,m Bob</tspan></text><path d=" M 226.3 29.4 L 235.6 37 L 247.1 33.7 L 242.8 44.8 L 249.6 54.7 L 237.6 54.1 L 230.3 63.6 L 227.2 52 L 215.9 47.9 L 226 41.4 Z" fill="#F9B233"/><path d=" M 81.4 22.9 L 84.3 39.1 L 99.4 45.9 L 84.9 53.7 L 83.1 70.1 L 71.1 58.7 L 55 62.1 L 62.1 47.2 L 53.9 32.9 L 70.3 35.1 Z" fill="#F9B233"/><path d=" M 34.4 117.4 L 36.3 121.2 L 40.6 121.9 L 37.5 124.9 L 38.3 129.1 L 34.4 127.1 L 30.6 129.1 L 31.4 124.9 L 28.3 121.9 L 32.5 121.2 Z" fill="#F9B233"/><circle cx="10.1" cy="198.4" r="10.1" fill="#E6007E"/><circle cx="178" cy="7.6" r="7.6" fill="#E6007E"/><circle cx="20.3" cy="29.4" r="7.6" fill="#E6007E"/><circle cx="338.3" cy="214.5" r="7.6" fill="#E6007E"/></svg>