<svg version="1.1" width="364.4" height="326.7" viewBox="0 0 364.4 326.7" xmlns="http://www.w3.org/2000/svg" xmlns:xlink="http://www.w3.org/1999/xlink" overflow="hidden"><defs></defs><g><path d=" M 128.8 167.9 C 140.6 164 151.8 157.7 160.1 148.5 C 168.4 139.3 173.5 126.8 172.5 114.5 C 172.4 113.1 172.3 112.2 172.1 110.8 C 171.1 103.8 167.9 82.9 151.4 67.5 C 142.2 59 132 54.9 124.4 53 C 125.6 45.8 126.7 38.7 127.9 31.5 C 122.2 35.8 116.6 40.2 110.9 44.5 C 110.1 41.2 109.2 37.8 108.4 34.5 C 103.8 37.9 96.7 43 87.9 49 C 61 67.5 57.5 67.7 51.4 75 C 37.8 91.4 37.5 112 37.4 119.5 C 37.2 130.9 37.1 145.1 47.3 157.7 C 58.9 172 81 174.3 85.6 174.7 L 82.5 189.6 L 111 198.8 L 125.2 188.3 L 128.8 167.9 Z" fill="#FFFFFF"/></g><path d=" M 165.6 206.7 C 149.6 199.5 140 186 139.5 185.2 C 136 180.2 129.2 179 124.2 182.5 C 119.2 186 118 192.8 121.5 197.8 C 123.6 200.9 139.8 222.9 166.9 230.5 C 166.6 230.1 166.3 229.6 166.1 229.2 C 161.8 221.8 165.4 214.2 165.6 206.7 Z" fill="#1D1D1B"/><g><g><path d=" M 80.6 172.2 C 69.1 171 57.7 165.9 50.1 157.1 C 40.1 145.6 39.5 130.6 40 116.2 C 40.5 102.1 44.1 87.6 53.4 76.5 C 57.4 71.8 62.6 68.6 67.7 65.3 C 82 56.1 96 46.6 109.7 36.6 C 108.5 36.1 107.3 35.6 106 35.1 C 106.8 38.4 107.7 41.8 108.5 45.1 C 108.9 46.5 110.9 47.6 112.2 46.6 C 117.9 42.3 123.5 37.9 129.2 33.6 C 128 32.7 126.8 31.7 125.5 30.8 C 124.3 38 123.2 45.1 122 52.3 C 121.8 53.6 122.3 55 123.7 55.4 C 148.5 62 164.2 81.9 168.8 106.6 C 171.1 118.8 169.6 130.2 162.8 140.8 C 154.8 153.1 141.7 160.9 128.1 165.5 C 125.1 166.5 126.4 171.4 129.4 170.3 C 143.8 165.4 157.4 157.4 166.2 144.6 C 174.1 133.2 176.2 120.3 173.9 106.8 C 169.3 79.8 152 57.7 125 50.5 C 125.6 51.5 126.2 52.6 126.7 53.6 C 127.9 46.4 129 39.3 130.2 32.1 C 130.5 30.3 128.5 27.8 126.5 29.3 C 120.8 33.6 115.2 38 109.5 42.3 C 110.7 42.8 111.9 43.3 113.2 43.8 C 112.4 40.5 111.5 37.1 110.7 33.8 C 110.3 32.4 108.3 31.4 107 32.3 C 93.3 42.3 79.3 51.9 65 61 C 58.7 65 52.8 68.8 48.2 74.8 C 39.1 86.5 35.4 101.2 34.8 115.8 C 34.3 130.6 34.9 145.8 44.2 158.1 C 52.9 169.5 66.4 175.8 80.4 177.3 C 83.8 177.6 83.8 172.6 80.6 172.2 L 80.6 172.2 Z" fill="#1D1D1B"/></g></g><circle cx="80.2" cy="102.5" r="12.8" fill="#1D1D1B"/><circle cx="131.7" cy="86.5" r="12.8" fill="#1D1D1B"/><g><g><path d=" M 82.4 99 C 85.6 99 85.6 94 82.4 94 C 79.2 94 79.2 99 82.4 99 L 82.4 99 Z" fill="#FFFFFF"/></g></g><g><g><path d=" M 137.2 86.3 C 140.4 86.3 140.4 81.3 137.2 81.3 C 134 81.3 134 86.3 137.2 86.3 L 137.2 86.3 Z" fill="#FFFFFF"/></g></g><path d=" M 78.6 111.5 C 75 110.5 72.8 106 73.8 104.5 C 74.5 103.5 76.9 104 80.6 104.8 C 84.2 105.6 86.7 106.1 86.9 107.3 C 87.1 109 82.6 112.6 78.6 111.5 Z" fill="#FFFFFF"/><path d=" M 126.2 85.8 C 125 86.5 126 94.2 130.7 95.6 C 134.9 96.8 139.7 92.1 139.2 90.8 C 138.9 90 136.6 91 132.9 89.8 C 128.5 88.3 127 85.2 126.2 85.8 Z" fill="#FFFFFF"/><circle cx="129.8" cy="80.4" r="1.1" fill="#FFFFFF"/><circle cx="74.7" cy="99.3" r="1.1" fill="#FFFFFF"/><path d=" M 92.2 133 C 97.2 133.7 107.9 134.6 120.2 130 C 133.2 125.1 141 116.7 144.2 112.7 C 148.4 117.6 152.5 122.5 156.7 127.5 C 153.8 131.8 144.5 144.2 126.9 150.2 C 106.2 157.2 88.6 150.1 84.4 148.3 C 87 143.2 89.6 138.1 92.2 133 Z" stroke="#1D1D1B" stroke-miterlimit="10" fill="#1D1D1B"/><circle cx="83.7" cy="137.5" r="14.4" stroke="#FFFFFF" stroke-miterlimit="10" fill="#FFFFFF"/><ellipse cx="155" cy="116.6" rx="12.9" ry="14.4" stroke="#FFFFFF" stroke-miterlimit="10" fill="#FFFFFF" transform="matrix(0.8952,-0.4456,0.4456,0.8952,-35.7257,81.3053)"/><circle cx="80.2" cy="134.8" r="6.9" fill="#F9B2DD"/><circle cx="155" cy="112.8" r="6.9" fill="#F9B2DD"/><path d=" M 100.3 141.5 C 106.4 141.5 117 140.7 128.3 135 C 134.4 131.9 139 128.3 142.4 125.2 C 141.5 123.3 140.7 121.4 139.8 119.5 C 136.3 122.8 129.9 128 120.5 131.3 C 112.7 134.1 105.8 134.5 101.3 134.5 C 100.9 136.8 100.6 139.2 100.3 141.5 Z" fill="#FFFFFF"/><path d=" M 110.9 142.3 L 113.9 137.5 L 119.9 141.5 Z" stroke="#1D1D1B" stroke-miterlimit="10" fill="#1D1D1B"/><path d=" M 64.3 142.5 C 68.9 131.1 69.8 128 70.9 128.2 C 71.7 128.3 72.7 130.1 73 138.4 C 77.2 132.7 79.6 130 80.4 130.5 C 81.2 131 80.1 134.9 77.1 142.4 C 84.1 138.3 88 136.7 88.8 137.6 C 89.8 138.9 85.7 144.4 76.4 154.2 C 74.7 154.8 63.3 158.6 60.7 154.8 C 59.8 153.3 60.7 151.5 64.3 142.5 Z" stroke="#1D1D1B" stroke-width="2" stroke-miterlimit="10" fill="#FFFFFF"/><path d=" M 178.2 118 C 170.4 108.6 168.6 105.9 167.5 106.4 C 166.8 106.8 166.4 108.8 168.6 116.8 C 162.9 112.6 159.7 110.9 159.1 111.5 C 158.4 112.2 160.7 115.6 165.9 121.8 C 158 120 153.8 119.7 153.3 120.8 C 152.7 122.3 158.3 126.3 170.2 132.8 C 172 132.8 184 133 185.3 128.6 C 185.8 126.9 184.4 125.5 178.2 118 Z" stroke="#1D1D1B" stroke-width="2" stroke-miterlimit="10" fill="#FFFFFF"/><path d=" M 81.4 187 C 85.9 188.6 93.5 190.5 102.9 190 C 114.1 189.4 122.5 185.4 126.9 183 L 126.9 183 C 138.7 190.9 146.3 203.8 147.5 218.1 C 149.8 246.2 152.1 274.4 154.4 302.5 C 148.4 308 129.1 324.3 100.4 325.5 C 93.4 325.8 76.6 326.5 66.4 319 C 45.1 303.3 49 248.9 81.4 187 Z" stroke="#1D1D1B" stroke-width="2" stroke-miterlimit="10" fill="#36A9E1"/><path d=" M 364.4 45.3 C 364.4 70.3 327.6 90.5 289.9 90.5 C 252.2 90.5 227.9 70.4 227.9 45.3 C 227.9 12 265.5 0 303.2 0 C 340.9 0 364.4 20.3 364.4 45.3 Z" fill="#1D1D1B"/><path d=" M 259.4 74.5 C 255.7 79.2 250.6 84.4 243.9 89 C 221.5 104.4 196.8 102.6 187.9 101.5 C 199.8 103.6 220.6 105.5 244.4 98 C 255.5 94.5 264.5 89.8 271.3 85.4 C 267.4 81.8 263.4 78.1 259.4 74.5 Z" fill="#1D1D1B"/><path d=" M 219.9 212.9 C 224 214.8 228.6 215.4 233.2 215.5 C 236.1 212.5 238.6 208.9 240.3 204.8 C 245.3 193 243.6 178.2 235.7 163.7 C 230.9 169.6 224.8 174.3 217.8 177.2 C 221.3 184.7 222 191.6 220 196.2 C 218.4 199.9 215 202.7 210.9 204.9 C 213.4 208.3 216.3 211.2 219.9 212.9 Z" fill="#1D1D1B"/><path d=" M 230.1 154.8 C 225.7 148.8 220.4 143.2 214.3 138 C 212.5 141.9 210.5 145.6 207.9 148.8 C 205.6 151.6 203 153.5 200.1 154.8 C 205.3 159.2 209.5 163.9 212.7 168.5 C 219.8 165.9 225.9 161.2 230.1 154.8 Z" fill="#1D1D1B"/><path d=" M 201.8 140.2 C 203.5 137.5 204.8 134.7 206.1 131.7 C 200.5 127.7 194.4 124.2 187.9 121.1 C 182.4 118.5 175.9 120.8 173.2 126.3 C 170.6 131.8 172.9 138.3 178.4 141 C 182.5 143 186.3 145.1 189.8 147.4 C 194.6 146.7 198.8 145.1 201.8 140.2 Z" fill="#1D1D1B"/><path d=" M 201.4 208.7 C 196.1 210.2 191 210.9 188.3 211.1 C 183.6 211.4 179.2 210.9 175.1 210 C 175.1 210.3 175 210.7 175 211 C 174.4 214.6 173.2 218.6 174 222.3 C 175.1 227.1 180.9 230.4 185.9 233.1 C 187.1 233.1 188.3 233.1 189.6 233 C 192.2 232.8 208 231.6 221.8 224.1 C 219.4 223.5 217.1 222.7 214.9 221.6 C 209.3 218.8 204.9 213.9 201.4 208.7 Z" fill="#1D1D1B"/><path d=" M 207.9 148.8 C 210.5 145.6 212.5 141.9 214.3 138 C 211.7 135.8 209 133.7 206.1 131.7 C 204.9 134.7 203.5 137.5 201.8 140.2 C 198.8 145.1 194.6 146.7 189.8 147.3 C 193.6 149.7 197 152.3 200.1 154.9 C 203 153.5 205.7 151.6 207.9 148.8 Z" fill="#1D1D1B"/><path d=" M 235.8 163.7 C 235.1 162.4 234.3 161 233.5 159.7 C 232.5 158 231.3 156.4 230.2 154.8 C 226 161.2 219.9 165.9 212.8 168.5 C 214.9 171.5 216.6 174.4 217.9 177.3 C 224.8 174.3 231 169.7 235.8 163.7 Z" fill="#1D1D1B"/><path d=" M 233.2 215.6 C 228.6 215.5 224 214.9 219.9 213 C 216.3 211.3 213.4 208.4 210.9 205 C 207.9 206.6 204.6 207.8 201.3 208.7 C 204.8 214 209.2 218.8 214.8 221.6 C 217 222.7 219.4 223.5 221.7 224.1 C 225.9 221.8 229.9 219.1 233.2 215.6 Z" fill="#1D1D1B"/><path d=" M 173.9 222.3 C 173.1 218.6 174.4 214.6 174.9 211 C 175 210.7 175 210.3 175 210 C 171.6 209.2 168.4 208.1 165.5 206.8 C 165.3 214.3 161.7 221.9 165.9 229.3 C 166.2 229.8 166.4 230.2 166.7 230.6 C 172.4 232.2 178.6 233.2 185.3 233.2 C 185.5 233.2 185.7 233.2 185.8 233.2 C 180.8 230.4 175 227 173.9 222.3 Z" fill="#1D1D1B"/><path d=" M 41.9 224.2 C 38.7 225.2 35.7 225.4 33.1 224.8 C 28.4 223.6 23.8 219.4 22.5 214.9 C 22 213.3 21.9 211.6 22.1 209.7 C 20 209.6 17.9 209.3 15.9 208.8 C 10.6 207.5 6.1 204.5 1.1 202.3 C -0.4 208.8 -0.4 215.1 1.4 221.2 C 4.9 233.1 15.5 243.2 27.8 246.3 C 30.6 247 33.5 247.3 36.4 247.3 C 42 247.3 47.7 246 53.2 243.6 C 47.8 238.3 43.8 231.6 41.9 224.2 Z" fill="#1D1D1B"/><path d=" M 47.5 177 C 53.1 173 59.5 169.2 66.7 165.8 C 72.2 163.2 74.5 156.6 71.9 151.1 C 69.3 145.6 62.7 143.3 57.2 145.9 C 48.4 150.1 40.3 154.9 33.3 160 C 33.9 163.6 34.9 167 36.8 170 C 39.3 173.7 43.3 175.6 47.5 177 Z" fill="#1D1D1B"/><path d=" M 85.6 212.9 C 88.6 208 91.2 202.6 93.5 196.8 C 95.7 191.1 93 184.8 87.3 182.5 C 81.6 180.3 75.3 183 73 188.7 C 71 193.8 68.6 198.4 66.1 202.5 C 71.1 208.3 77.9 212 85.6 212.9 Z" fill="#1D1D1B"/><path d=" M 25.6 199.6 C 28.4 194.6 32.7 189.3 38.6 184 C 34.9 182.2 31.7 179.8 29.2 176.3 C 27.2 173.5 25.8 170.3 24.8 166.9 C 15.5 175.1 8.6 183.9 4.5 192.9 C 11.6 196 17.9 199.7 25.6 199.6 Z" fill="#1D1D1B"/><path d=" M 60 210.9 C 57.1 214.3 54.1 217.1 51.1 219.3 C 52.5 226.9 56.5 233.6 62.4 238.3 C 68.5 234.1 74.2 228.6 79.3 221.9 C 72.1 220.1 65.4 216.3 60 210.9 Z" fill="#1D1D1B"/><path d=" M 66.1 202.6 C 64.2 205.7 62.2 208.4 60.1 210.9 C 65.4 216.2 72.2 220.1 79.5 221.9 C 81.7 219.1 83.7 216.1 85.6 212.9 C 77.9 212 71.1 208.3 66.1 202.6 Z" fill="#1D1D1B"/><path d=" M 51.1 219.3 C 48 221.6 44.8 223.2 41.9 224.2 C 43.8 231.5 47.8 238.2 53.2 243.5 C 56.3 242.1 59.4 240.4 62.5 238.3 C 56.6 233.6 52.6 226.9 51.1 219.3 Z" fill="#1D1D1B"/><path d=" M 22.1 209.6 C 22.4 206.6 23.6 203.2 25.6 199.6 C 17.9 199.7 11.6 195.9 4.4 192.8 C 2.9 195.9 1.8 199.1 1.1 202.2 C 6 204.4 10.5 207.4 15.9 208.7 C 18 209.2 20 209.5 22.1 209.6 Z" fill="#1D1D1B"/><path d=" M 38.6 184.1 C 41.3 181.7 44.2 179.3 47.5 177 C 43.3 175.7 39.3 173.8 36.9 170 C 35 167.1 34 163.6 33.4 160 C 30.3 162.2 27.5 164.6 24.8 166.9 C 25.8 170.3 27.2 173.5 29.2 176.3 C 31.6 179.8 34.9 182.3 38.6 184.1 Z" fill="#1D1D1B"/></svg>